<?xml version="1.0" standalone="no"?>
<!DOCTYPE svg PUBLIC "-//W3C//DTD SVG 20010904//EN"
 "http://www.w3.org/TR/2001/REC-SVG-20010904/DTD/svg10.dtd">
<svg version="1.0" xmlns="http://www.w3.org/2000/svg"
 width="480.000000pt" height="480.000000pt" viewBox="0 0 480.000000 480.000000"
 preserveAspectRatio="xMidYMid meet">
<metadata>
Created by potrace 1.14, written by Peter Selinger 2001-2017
</metadata>
<g transform="translate(0.000000,480.000000) scale(0.100000,-0.100000)"
fill="#000000" stroke="none">
<path d="M0 2400 l0 -2400 2400 0 2400 0 0 2400 0 2400 -2400 0 -2400 0 0
-2400z m1719 1816 c171 -46 287 -228 247 -386 -8 -31 -42 -116 -76 -190 -35
-74 -69 -150 -77 -168 l-14 -33 263 2 c229 2 267 0 296 -15 51 -26 67 -60 66
-137 -4 -248 -254 -385 -755 -414 l-115 -7 -98 -257 c-278 -723 -413 -1278
-332 -1359 20 -20 107 -27 181 -13 81 15 201 74 314 156 129 93 192 109 272
69 91 -46 97 -217 12 -376 -53 -99 -173 -224 -293 -303 -112 -75 -194 -114
-317 -152 -77 -23 -106 -27 -233 -27 -109 -1 -161 3 -208 17 -205 56 -331 181
-413 407 -22 60 -24 79 -23 265 0 217 8 280 70 557 47 213 128 492 230 796 47
140 84 255 82 256 -1 1 -30 7 -63 14 -33 6 -89 26 -125 44 -54 27 -69 41 -88
78 -44 87 -21 173 72 266 35 34 81 67 123 87 62 29 78 32 183 35 l116 4 18 46
c40 102 237 491 283 562 110 167 232 221 402 176z m2031 -711 c210 -32 338
-93 473 -224 130 -125 180 -234 180 -390 0 -157 -46 -265 -158 -369 -91 -85
-176 -124 -283 -130 -99 -5 -158 13 -214 66 -69 66 -78 115 -49 279 20 111
-17 206 -102 260 -38 25 -50 28 -132 27 -110 0 -171 -25 -216 -87 -40 -55 -52
-108 -44 -192 14 -147 45 -207 256 -490 193 -258 294 -437 342 -600 24 -85 29
-289 8 -375 -19 -76 -71 -187 -119 -252 -125 -170 -383 -335 -606 -388 -198
-46 -348 -49 -531 -10 -172 36 -300 104 -402 213 -100 107 -137 208 -132 354
4 79 8 97 41 164 98 193 305 307 470 257 75 -22 118 -104 118 -226 0 -99 44
-191 117 -247 77 -58 196 -56 273 5 49 39 63 76 58 147 -5 76 -45 155 -157
313 -271 381 -315 452 -379 610 -111 274 -120 498 -29 705 47 106 89 168 183
265 162 168 360 275 574 310 41 6 82 13 90 15 47 9 289 3 370 -10z"/>
</g>
</svg>
